<svg width="274" height="294" viewBox="0 0 274 294" fill="none" xmlns="http://www.w3.org/2000/svg">
<path d="M126.863 9.52527C118.267 16.0927 113.422 22.5746 110.278 32.9253V59.9253C110.363 90.5253 110.363 90.5253 110.363 90.5253C106.863 95.5253 110.863 99.0253 113.863 99.0253C116.863 99.0253 120.863 94.5253 116.863 90.5253C116.863 79.5253 116.863 90.5253 116.863 60.5253C116.782 33.5254 116.863 32.9253 116.863 32.9253C119.699 25.5133 123.25 20.0862 129.363 15.0253C137.408 8.36482 142.363 7.02527 153.863 6.02527C165.263 6.02527 173.032 8.79922 181.363 16.5253C186.88 21.6421 191.478 32.9253 191.478 32.9253V58.8253C191.478 89.2253 191.478 90.5253 191.478 90.5253C187.363 95.0253 191.478 99.0253 194.363 99.0253C197.363 99.0253 201.363 95.5253 197.678 90.5253C197.678 90.5253 197.678 89.2253 197.678 58.8253V32.9253C195.203 23.0772 191.478 16.5253 183.863 9.52527C180.055 6.02527 166.703 -0.454971 153.863 0.0252686C142.756 0.440689 135.989 2.55216 126.863 9.52527Z" fill="black"/>
<path d="M227.016 55.4C214.116 56.6 202.716 57.7 201.816 57.7C200.416 57.8 200.016 58.7 200.016 62.3V66.8H217.516H235.016L240.516 78C264.616 127.4 265.416 189.6 242.816 258.8C239.116 270 236.816 276.2 231.516 289.3L229.916 293.3L231.916 290.8C235.516 286.3 246.116 267 251.216 255.5C265.316 224.1 272.616 192.3 273.716 157.2C274.616 126.6 271.216 100.2 263.416 77.7C259.916 67.6 252.616 52.7 251.216 52.9C250.782 52.9619 239.916 54.1 227.016 55.4Z" fill="black"/>
<path d="M154.5 61.5C118.471 64.8777 119 64.8 119 66C119 67.2 131.216 66.8 153.516 66.8H188.016V62.8C188.016 58 188.326 58.699 186.316 58.9C185.316 59 170.5 60 154.5 61.5Z" fill="black"/>
<path d="M17.824 109.28C20.6613 109.28 22.84 109.584 24.36 110.192C25.88 110.8 27.1973 111.459 28.312 112.168C28.92 112.523 29.4013 112.801 29.756 113.004C30.1613 113.156 30.5413 113.232 30.896 113.232C31.4027 113.232 31.7573 112.953 31.96 112.396C32.2133 111.839 32.416 111.003 32.568 109.888H34.316C34.2653 110.851 34.1893 111.965 34.088 113.232C34.0373 114.499 33.9867 116.196 33.936 118.324C33.936 120.401 33.936 123.163 33.936 126.608H32.188C32.036 124.024 31.4533 121.541 30.44 119.16C29.4773 116.779 28.084 114.828 26.26 113.308C24.4867 111.737 22.2067 110.952 19.42 110.952C16.9373 110.952 14.86 111.687 13.188 113.156C11.5667 114.625 10.756 116.601 10.756 119.084C10.756 121.212 11.288 123.011 12.352 124.48C13.416 125.899 14.9107 127.292 16.836 128.66C18.812 129.977 21.1427 131.497 23.828 133.22C26.3107 134.841 28.54 136.463 30.516 138.084C32.492 139.655 34.0373 141.403 35.152 143.328C36.3173 145.253 36.9 147.609 36.9 150.396C36.9 153.689 36.0893 156.425 34.468 158.604C32.8467 160.783 30.668 162.404 27.932 163.468C25.196 164.532 22.2067 165.064 18.964 165.064C15.9747 165.064 13.5933 164.76 11.82 164.152C10.0973 163.544 8.60267 162.911 7.336 162.252C6.22133 161.543 5.36 161.188 4.752 161.188C4.24533 161.188 3.86533 161.467 3.612 162.024C3.40933 162.581 3.232 163.417 3.08 164.532H1.332C1.43333 163.367 1.484 161.999 1.484 160.428C1.53467 158.857 1.56 156.831 1.56 154.348C1.61067 151.815 1.636 148.623 1.636 144.772H3.384C3.58667 148.015 4.144 151.055 5.056 153.892C6.01867 156.679 7.46267 158.933 9.388 160.656C11.364 162.379 13.9733 163.24 17.216 163.24C18.9893 163.24 20.5853 162.936 22.004 162.328C23.4733 161.669 24.6387 160.681 25.5 159.364C26.3613 157.996 26.792 156.273 26.792 154.196C26.792 152.119 26.3107 150.295 25.348 148.724C24.3853 147.153 23.0427 145.684 21.32 144.316C19.5973 142.948 17.5707 141.555 15.24 140.136C12.8587 138.616 10.6293 137.071 8.552 135.5C6.47467 133.929 4.80267 132.156 3.536 130.18C2.32 128.153 1.712 125.721 1.712 122.884C1.712 119.743 2.472 117.184 3.992 115.208C5.512 113.181 7.488 111.687 9.92 110.724C12.4027 109.761 15.0373 109.28 17.824 109.28ZM56.1607 104.492V131.396C57.4273 128.559 59.1753 126.557 61.4047 125.392C63.6847 124.227 66.142 123.644 68.7767 123.644C70.854 123.644 72.5513 123.923 73.8687 124.48C75.186 125.037 76.25 125.747 77.0607 126.608C77.922 127.571 78.53 128.812 78.8847 130.332C79.29 131.852 79.4927 133.904 79.4927 136.488V156.932C79.4927 159.06 79.8727 160.504 80.6327 161.264C81.4433 162.024 82.786 162.404 84.6607 162.404V164C83.7487 163.949 82.3553 163.899 80.4807 163.848C78.606 163.747 76.7567 163.696 74.9327 163.696C73.1087 163.696 71.31 163.747 69.5367 163.848C67.7633 163.899 66.4207 163.949 65.5087 164V162.404C67.13 162.404 68.27 162.024 68.9287 161.264C69.5873 160.504 69.9167 159.06 69.9167 156.932V133.904C69.9167 132.536 69.79 131.32 69.5367 130.256C69.2833 129.141 68.7767 128.28 68.0167 127.672C67.3073 127.013 66.218 126.684 64.7487 126.684C63.1273 126.684 61.658 127.14 60.3407 128.052C59.074 128.913 58.0607 130.155 57.3007 131.776C56.5407 133.347 56.1607 135.145 56.1607 137.172V156.932C56.1607 159.06 56.49 160.504 57.1487 161.264C57.858 162.024 58.998 162.404 60.5687 162.404V164C59.7073 163.949 58.4153 163.899 56.6927 163.848C55.0207 163.747 53.2727 163.696 51.4487 163.696C49.6247 163.696 47.7247 163.747 45.7487 163.848C43.8233 163.899 42.3793 163.949 41.4167 164V162.404C43.2913 162.404 44.6087 162.024 45.3687 161.264C46.1793 160.504 46.5847 159.06 46.5847 156.932V113.612C46.5847 111.332 46.2047 109.66 45.4447 108.596C44.7353 107.481 43.3927 106.924 41.4167 106.924V105.328C43.038 105.48 44.6087 105.556 46.1287 105.556C48.054 105.556 49.8527 105.48 51.5247 105.328C53.1967 105.125 54.742 104.847 56.1607 104.492ZM106.971 123.644C110.467 123.644 113.558 124.353 116.243 125.772C118.979 127.14 121.133 129.344 122.703 132.384C124.325 135.424 125.135 139.427 125.135 144.392C125.135 149.357 124.325 153.36 122.703 156.4C121.133 159.44 118.979 161.644 116.243 163.012C113.558 164.38 110.467 165.064 106.971 165.064C103.475 165.064 100.359 164.38 97.6234 163.012C94.8874 161.644 92.7341 159.44 91.1634 156.4C89.5927 153.36 88.8074 149.357 88.8074 144.392C88.8074 139.427 89.5927 135.424 91.1634 132.384C92.7341 129.344 94.8874 127.14 97.6234 125.772C100.359 124.353 103.475 123.644 106.971 123.644ZM106.971 125.164C104.59 125.164 102.639 126.684 101.119 129.724C99.6501 132.713 98.9154 137.603 98.9154 144.392C98.9154 151.181 99.6501 156.071 101.119 159.06C102.639 162.049 104.59 163.544 106.971 163.544C109.302 163.544 111.227 162.049 112.747 159.06C114.267 156.071 115.027 151.181 115.027 144.392C115.027 137.603 114.267 132.713 112.747 129.724C111.227 126.684 109.302 125.164 106.971 125.164ZM144.409 123.948V170.384C144.409 172.664 145.017 174.184 146.233 174.944C147.499 175.755 149.222 176.16 151.401 176.16V177.756C150.185 177.705 148.462 177.629 146.233 177.528C144.054 177.477 141.723 177.452 139.241 177.452C137.518 177.452 135.795 177.477 134.073 177.528C132.35 177.629 131.033 177.705 130.121 177.756V176.16C131.843 176.16 133.059 175.805 133.769 175.096C134.478 174.387 134.833 173.069 134.833 171.144V133.068C134.833 130.788 134.478 129.116 133.769 128.052C133.059 126.937 131.691 126.38 129.665 126.38V124.784C131.286 124.936 132.857 125.012 134.377 125.012C136.302 125.012 138.101 124.936 139.773 124.784C141.445 124.581 142.99 124.303 144.409 123.948ZM156.341 123.644C158.975 123.644 161.331 124.379 163.409 125.848C165.486 127.267 167.107 129.369 168.273 132.156C169.489 134.943 170.097 138.439 170.097 142.644C170.097 145.988 169.717 149.053 168.957 151.84C168.197 154.576 167.057 156.932 165.537 158.908C164.067 160.884 162.243 162.404 160.065 163.468C157.886 164.532 155.403 165.064 152.617 165.064C150.489 165.064 148.589 164.659 146.917 163.848C145.245 163.037 144.029 161.948 143.269 160.58L144.029 159.516C144.637 160.58 145.473 161.441 146.537 162.1C147.601 162.759 148.867 163.088 150.337 163.088C152.769 163.088 154.694 162.303 156.113 160.732C157.531 159.111 158.519 156.856 159.077 153.968C159.685 151.08 159.989 147.736 159.989 143.936C159.989 139.731 159.71 136.361 159.153 133.828C158.595 131.295 157.759 129.471 156.645 128.356C155.53 127.191 154.213 126.608 152.693 126.608C150.615 126.608 148.741 127.444 147.069 129.116C145.447 130.737 144.459 133.119 144.105 136.26L143.573 134.132C144.383 130.788 145.929 128.204 148.209 126.38C150.489 124.556 153.199 123.644 156.341 123.644ZM26.488 181.128C29.832 181.128 32.568 181.635 34.696 182.648C36.8747 183.611 38.8 184.751 40.472 186.068C41.4853 186.828 42.2453 186.929 42.752 186.372C43.3093 185.764 43.6893 184.371 43.892 182.192H45.64C45.5387 184.117 45.4627 186.473 45.412 189.26C45.3613 192.047 45.336 195.72 45.336 200.28H43.588C43.284 198 42.9547 196.1 42.6 194.58C42.2453 193.009 41.7387 191.667 41.08 190.552C40.472 189.437 39.6107 188.373 38.496 187.36C37.128 185.84 35.4813 184.725 33.556 184.016C31.6813 183.256 29.7053 182.876 27.628 182.876C24.9933 182.876 22.688 183.585 20.712 185.004C18.7867 186.372 17.1653 188.272 15.848 190.704C14.5813 193.085 13.6187 195.872 12.96 199.064C12.352 202.256 12.048 205.651 12.048 209.248C12.048 212.947 12.3773 216.392 13.036 219.584C13.7453 222.725 14.7587 225.487 16.076 227.868C17.444 230.199 19.116 232.023 21.092 233.34C23.1187 234.657 25.4493 235.316 28.084 235.316C29.9587 235.316 31.884 234.961 33.86 234.252C35.836 233.543 37.4573 232.453 38.724 230.984C40.396 229.464 41.536 227.665 42.144 225.588C42.752 223.46 43.2333 220.648 43.588 217.152H45.336C45.336 221.915 45.3613 225.765 45.412 228.704C45.4627 231.592 45.5387 234.024 45.64 236H43.892C43.6893 233.821 43.3347 232.453 42.828 231.896C42.372 231.339 41.5867 231.415 40.472 232.124C38.5973 233.441 36.596 234.607 34.468 235.62C32.3907 236.583 29.7053 237.064 26.412 237.064C21.244 237.064 16.7093 235.975 12.808 233.796C8.90667 231.617 5.86667 228.476 3.688 224.372C1.56 220.268 0.496 215.328 0.496 209.552C0.496 203.877 1.61067 198.912 3.84 194.656C6.06933 190.4 9.13467 187.081 13.036 184.7C16.9373 182.319 21.4213 181.128 26.488 181.128ZM71.4948 195.644C74.9908 195.644 78.0815 196.353 80.7668 197.772C83.5028 199.14 85.6562 201.344 87.2268 204.384C88.8482 207.424 89.6588 211.427 89.6588 216.392C89.6588 221.357 88.8482 225.36 87.2268 228.4C85.6562 231.44 83.5028 233.644 80.7668 235.012C78.0815 236.38 74.9908 237.064 71.4948 237.064C67.9988 237.064 64.8828 236.38 62.1468 235.012C59.4108 233.644 57.2575 231.44 55.6868 228.4C54.1162 225.36 53.3308 221.357 53.3308 216.392C53.3308 211.427 54.1162 207.424 55.6868 204.384C57.2575 201.344 59.4108 199.14 62.1468 197.772C64.8828 196.353 67.9988 195.644 71.4948 195.644ZM71.4948 197.164C69.1135 197.164 67.1628 198.684 65.6428 201.724C64.1735 204.713 63.4388 209.603 63.4388 216.392C63.4388 223.181 64.1735 228.071 65.6428 231.06C67.1628 234.049 69.1135 235.544 71.4948 235.544C73.8255 235.544 75.7508 234.049 77.2708 231.06C78.7908 228.071 79.5508 223.181 79.5508 216.392C79.5508 209.603 78.7908 204.713 77.2708 201.724C75.7508 198.684 73.8255 197.164 71.4948 197.164ZM119.876 195.644C121.447 195.644 122.739 195.973 123.752 196.632C124.816 197.291 125.601 198.127 126.108 199.14C126.615 200.153 126.868 201.217 126.868 202.332C126.868 204.004 126.361 205.397 125.348 206.512C124.385 207.627 123.093 208.184 121.472 208.184C119.952 208.184 118.711 207.779 117.748 206.968C116.785 206.157 116.304 205.043 116.304 203.624C116.304 202.357 116.608 201.293 117.216 200.432C117.875 199.571 118.609 198.887 119.42 198.38C118.863 198.076 118.229 197.975 117.52 198.076C116.304 198.177 115.189 198.608 114.176 199.368C113.163 200.128 112.301 201.065 111.592 202.18C110.883 203.295 110.325 204.485 109.92 205.752C109.565 207.019 109.388 208.235 109.388 209.4V228.172C109.388 230.655 110.021 232.327 111.288 233.188C112.555 233.999 114.404 234.404 116.836 234.404V236C115.671 235.949 113.973 235.899 111.744 235.848C109.565 235.747 107.285 235.696 104.904 235.696C102.928 235.696 100.952 235.747 98.976 235.848C97.0506 235.899 95.6066 235.949 94.644 236V234.404C96.5186 234.404 97.836 234.024 98.596 233.264C99.4066 232.504 99.812 231.06 99.812 228.932V204.992C99.812 202.712 99.432 201.04 98.672 199.976C97.9626 198.861 96.62 198.304 94.644 198.304V196.708C96.2653 196.86 97.836 196.936 99.356 196.936C101.231 196.936 103.004 196.86 104.676 196.708C106.399 196.505 107.969 196.227 109.388 195.872V203.776C109.996 202.357 110.781 201.04 111.744 199.824C112.757 198.608 113.948 197.62 115.316 196.86C116.735 196.049 118.255 195.644 119.876 195.644ZM156.811 195.644C158.939 195.644 160.636 195.923 161.903 196.48C163.22 197.037 164.284 197.747 165.095 198.608C166.007 199.571 166.64 200.812 166.995 202.332C167.4 203.852 167.603 205.904 167.603 208.488V228.932C167.603 231.06 167.983 232.504 168.743 233.264C169.553 234.024 170.896 234.404 172.771 234.404V236C171.859 235.949 170.44 235.899 168.515 235.848C166.64 235.747 164.816 235.696 163.043 235.696C161.168 235.696 159.344 235.747 157.571 235.848C155.797 235.899 154.48 235.949 153.619 236V234.404C155.24 234.404 156.38 234.024 157.039 233.264C157.697 232.504 158.027 231.06 158.027 228.932V205.904C158.027 204.536 157.9 203.32 157.647 202.256C157.393 201.141 156.887 200.28 156.127 199.672C155.367 199.013 154.277 198.684 152.859 198.684C151.187 198.684 149.692 199.14 148.375 200.052C147.108 200.964 146.095 202.231 145.335 203.852C144.625 205.423 144.271 207.196 144.271 209.172V228.932C144.271 231.06 144.6 232.504 145.259 233.264C145.917 234.024 147.057 234.404 148.679 234.404V236C147.817 235.949 146.525 235.899 144.803 235.848C143.08 235.747 141.332 235.696 139.559 235.696C137.684 235.696 135.784 235.747 133.859 235.848C131.933 235.899 130.489 235.949 129.527 236V234.404C131.401 234.404 132.719 234.024 133.479 233.264C134.289 232.504 134.695 231.06 134.695 228.932V204.992C134.695 202.712 134.315 201.04 133.555 199.976C132.845 198.861 131.503 198.304 129.527 198.304V196.708C131.148 196.86 132.719 196.936 134.239 196.936C136.113 196.936 137.887 196.86 139.559 196.708C141.281 196.505 142.852 196.227 144.271 195.872V203.472C145.537 200.584 147.285 198.557 149.515 197.392C151.744 196.227 154.176 195.644 156.811 195.644ZM194.917 195.644C199.376 195.644 202.872 196.987 205.405 199.672C207.938 202.357 209.205 206.639 209.205 212.516H183.593L183.517 211.072H200.389C200.49 208.589 200.338 206.309 199.933 204.232C199.528 202.104 198.869 200.407 197.957 199.14C197.096 197.873 195.956 197.24 194.537 197.24C192.612 197.24 190.94 198.38 189.521 200.66C188.102 202.889 187.216 206.563 186.861 211.68L187.165 212.136C187.064 212.795 186.988 213.504 186.937 214.264C186.937 215.024 186.937 215.784 186.937 216.544C186.937 220.04 187.444 222.928 188.457 225.208C189.47 227.488 190.788 229.16 192.409 230.224C194.03 231.288 195.702 231.82 197.425 231.82C198.59 231.82 199.781 231.643 200.997 231.288C202.213 230.933 203.404 230.275 204.569 229.312C205.734 228.349 206.798 226.981 207.761 225.208L209.205 225.816C208.648 227.589 207.71 229.363 206.393 231.136C205.126 232.859 203.48 234.277 201.453 235.392C199.426 236.507 197.045 237.064 194.309 237.064C190.864 237.064 187.824 236.304 185.189 234.784C182.554 233.264 180.502 231.009 179.033 228.02C177.564 224.98 176.829 221.281 176.829 216.924C176.829 212.313 177.589 208.437 179.109 205.296C180.68 202.155 182.833 199.773 185.569 198.152C188.305 196.48 191.421 195.644 194.917 195.644ZM239.071 195.644C240.642 195.644 241.934 195.973 242.947 196.632C244.011 197.291 244.797 198.127 245.303 199.14C245.81 200.153 246.063 201.217 246.063 202.332C246.063 204.004 245.557 205.397 244.543 206.512C243.581 207.627 242.289 208.184 240.667 208.184C239.147 208.184 237.906 207.779 236.943 206.968C235.981 206.157 235.499 205.043 235.499 203.624C235.499 202.357 235.803 201.293 236.411 200.432C237.07 199.571 237.805 198.887 238.615 198.38C238.058 198.076 237.425 197.975 236.715 198.076C235.499 198.177 234.385 198.608 233.371 199.368C232.358 200.128 231.497 201.065 230.787 202.18C230.078 203.295 229.521 204.485 229.115 205.752C228.761 207.019 228.583 208.235 228.583 209.4V228.172C228.583 230.655 229.217 232.327 230.483 233.188C231.75 233.999 233.599 234.404 236.031 234.404V236C234.866 235.949 233.169 235.899 230.939 235.848C228.761 235.747 226.481 235.696 224.099 235.696C222.123 235.696 220.147 235.747 218.171 235.848C216.246 235.899 214.802 235.949 213.839 236V234.404C215.714 234.404 217.031 234.024 217.791 233.264C218.602 232.504 219.007 231.06 219.007 228.932V204.992C219.007 202.712 218.627 201.04 217.867 199.976C217.158 198.861 215.815 198.304 213.839 198.304V196.708C215.461 196.86 217.031 196.936 218.551 196.936C220.426 196.936 222.199 196.86 223.871 196.708C225.594 196.505 227.165 196.227 228.583 195.872V203.776C229.191 202.357 229.977 201.04 230.939 199.824C231.953 198.608 233.143 197.62 234.511 196.86C235.93 196.049 237.45 195.644 239.071 195.644Z" fill="black"/>
</svg>
