<svg width="369" height="369" viewBox="0 0 369 369" fill="none" xmlns="http://www.w3.org/2000/svg">
<rect width="369" height="369" fill="black"/>
<path d="M107.293 43.7429C97.0464 50.4603 91.2708 57.0902 87.5239 67.6774V95.2942C87.6244 126.593 87.6244 126.593 87.6244 126.593C83.4524 131.707 88.2204 135.287 91.7965 135.287C95.3725 135.287 100.141 130.685 95.3725 126.593C95.3725 115.342 95.3725 126.593 95.3725 95.9079C95.2759 68.2912 95.3725 67.6774 95.3725 67.6774C98.7531 60.0961 102.986 54.545 110.273 49.3685C119.862 42.5559 125.769 41.1858 139.477 40.1629C153.066 40.1629 162.327 43.0002 172.257 50.9028C178.834 56.1364 184.315 67.6774 184.315 67.6774V94.1691C184.315 125.263 184.315 126.593 184.315 126.593C179.409 131.196 184.315 135.287 187.754 135.287C191.33 135.287 196.098 131.707 191.706 126.593C191.706 126.593 191.706 125.263 191.706 94.1691V67.6774C188.756 57.6044 184.315 50.9028 175.237 43.7429C170.698 40.1629 154.782 33.5346 139.477 34.0258C126.238 34.4508 118.172 36.6105 107.293 43.7429Z" fill="#F6F6F6"/>
<path d="M226.676 90.6655C211.299 91.8929 197.71 93.0181 196.638 93.0181C194.969 93.1204 194.492 94.0409 194.492 97.7232V102.326H215.352H236.212L242.768 113.782C271.496 164.31 272.45 227.931 245.51 298.712C241.1 310.168 238.358 316.509 232.04 329.909L230.133 334L232.517 331.443C236.808 326.84 249.444 307.099 255.523 295.337C272.33 263.219 281.032 230.693 282.343 194.791C283.416 163.492 279.363 136.489 270.066 113.475C265.894 103.144 257.192 87.9038 255.523 88.1084C255.006 88.1718 242.053 89.3358 226.676 90.6655Z" fill="#F6F6F6"/>
<path d="M140.237 96.9049C97.2902 100.36 97.9201 100.28 97.9201 101.508C97.9201 102.735 112.481 102.326 139.063 102.326H180.188V98.2346C180.188 93.3249 180.557 94.0399 178.161 94.2455C176.969 94.3478 159.309 95.3706 140.237 96.9049Z" fill="#F6F6F6"/>
</svg>
