<svg width="369" height="369" viewBox="0 0 369 369" fill="none" xmlns="http://www.w3.org/2000/svg">
<rect width="369" height="369" fill="#F6F6F6"/>
<path d="M118.271 43.7429C109.479 50.4603 104.523 57.0902 101.308 67.6774V95.2942C101.394 126.593 101.394 126.593 101.394 126.593C97.8139 131.707 101.905 135.287 104.974 135.287C108.042 135.287 112.134 130.685 108.042 126.593C108.042 115.342 108.042 126.593 108.042 95.9079C107.959 68.2912 108.042 67.6774 108.042 67.6774C110.943 60.0961 114.575 54.545 120.828 49.3685C129.057 42.5559 134.125 41.1858 145.888 40.1629C157.548 40.1629 165.494 43.0002 174.016 50.9028C179.659 56.1364 184.363 67.6774 184.363 67.6774V94.1691C184.363 125.263 184.363 126.593 184.363 126.593C180.153 131.196 184.362 135.287 187.313 135.287C190.381 135.287 194.473 131.707 190.704 126.593C190.704 126.593 190.704 125.263 190.704 94.1691V67.6774C188.173 57.6044 184.363 50.9028 176.573 43.7429C172.678 40.1629 159.021 33.5346 145.888 34.0258C134.527 34.4508 127.606 36.6105 118.271 43.7429Z" fill="black"/>
<path d="M220.712 90.6655C207.517 91.8929 195.856 93.018 194.936 93.018C193.504 93.1203 193.095 94.0409 193.095 97.7231V102.326H210.995H228.894L234.52 113.782C259.17 164.31 259.989 227.931 236.872 298.712C233.088 310.168 230.735 316.509 225.314 329.909L223.678 334L225.723 331.443C229.406 326.84 240.248 307.099 245.464 295.336C259.886 263.219 267.353 230.693 268.478 194.791C269.399 163.492 265.921 136.489 257.943 113.475C254.363 103.144 246.896 87.9038 245.464 88.1084C245.021 88.1718 233.906 89.3358 220.712 90.6655Z" fill="black"/>
<path d="M146.539 96.9049C109.688 100.36 110.228 100.28 110.228 101.508C110.228 102.735 122.723 102.326 145.533 102.326H180.821V98.2346C180.821 93.3249 181.138 94.0399 179.082 94.2455C178.059 94.3478 162.905 95.3706 146.539 96.9049Z" fill="black"/>
</svg>
