<svg width="700" height="250" viewBox="0 0 700 250" fill="none" xmlns="http://www.w3.org/2000/svg">
<path d="M574.226 8.11905C566.899 13.7169 562.769 19.2419 560.09 28.0645V51.0785C560.162 77.161 560.162 77.161 560.162 77.161C557.178 81.4228 560.588 84.4061 563.145 84.4061C565.702 84.4061 569.111 80.5705 565.702 77.161C565.702 67.7849 565.702 77.161 565.702 51.5899C565.633 28.576 565.702 28.0645 565.702 28.0645C568.119 21.7468 571.146 17.1208 576.357 12.8071C583.214 7.12992 587.437 5.98812 597.24 5.13575C606.957 5.13575 613.579 7.50019 620.68 14.0856C625.383 18.447 629.302 28.0645 629.302 28.0645V50.1409C629.302 76.0529 629.302 77.161 629.302 77.161C625.794 80.9966 629.302 84.4061 631.761 84.4061C634.318 84.4061 637.727 81.4228 634.587 77.161C634.587 77.161 634.587 76.0529 634.587 50.1409V28.0645C632.477 19.6703 629.302 14.0856 622.811 8.11905C619.565 5.13575 608.184 -0.387805 597.24 0.0215369C587.773 0.375628 582.005 2.17538 574.226 8.11905Z" fill="black"/>
<path d="M659.593 47.2213C648.597 48.2441 638.88 49.1817 638.113 49.1817C636.92 49.2669 636.579 50.0341 636.579 53.1026V56.9383H651.495H666.412L671.1 66.4848C691.642 108.592 692.324 161.609 673.06 220.593C669.907 230.14 667.946 235.424 663.429 246.591L662.065 250L663.77 247.869C666.838 244.033 675.873 227.583 680.22 217.78C692.239 191.016 698.461 163.911 699.399 133.992C700.166 107.91 697.268 85.4074 690.619 66.2291C687.636 57.6202 681.414 44.9199 680.22 45.0903C679.851 45.1431 670.589 46.1132 659.593 47.2213Z" fill="black"/>
<path d="M597.783 52.4207C567.073 55.2997 567.524 55.2335 567.524 56.2564C567.524 57.2792 577.936 56.9383 596.944 56.9383H626.35V53.5288C626.35 49.4374 626.615 50.0332 624.901 50.2046C624.049 50.2898 611.421 51.1422 597.783 52.4207Z" fill="black"/>
<path d="M26.88 88.6C31.36 88.6 34.8 89.08 37.2 90.04C39.6 91 41.68 92.04 43.44 93.16C44.4 93.72 45.16 94.16 45.72 94.48C46.36 94.72 46.96 94.84 47.52 94.84C48.32 94.84 48.88 94.4 49.2 93.52C49.6 92.64 49.92 91.32 50.16 89.56H52.92C52.84 91.08 52.72 92.84 52.56 94.84C52.48 96.84 52.4 99.52 52.32 102.88C52.32 106.16 52.32 110.52 52.32 115.96H49.56C49.32 111.88 48.4 107.96 46.8 104.2C45.28 100.44 43.08 97.36 40.2 94.96C37.4 92.48 33.8 91.24 29.4 91.24C25.48 91.24 22.2 92.4 19.56 94.72C17 97.04 15.72 100.16 15.72 104.08C15.72 107.44 16.56 110.28 18.24 112.6C19.92 114.84 22.28 117.04 25.32 119.2C28.44 121.28 32.12 123.68 36.36 126.4C40.28 128.96 43.8 131.52 46.92 134.08C50.04 136.56 52.48 139.32 54.24 142.36C56.08 145.4 57 149.12 57 153.52C57 158.72 55.72 163.04 53.16 166.48C50.6 169.92 47.16 172.48 42.84 174.16C38.52 175.84 33.8 176.68 28.68 176.68C23.96 176.68 20.2 176.2 17.4 175.24C14.68 174.28 12.32 173.28 10.32 172.24C8.56 171.12 7.2 170.56 6.24 170.56C5.44 170.56 4.84 171 4.44 171.88C4.12 172.76 3.84 174.08 3.6 175.84H0.84C1 174 1.08 171.84 1.08 169.36C1.16 166.88 1.2 163.68 1.2 159.76C1.28 155.76 1.32 150.72 1.32 144.64H4.08C4.4 149.76 5.28 154.56 6.72 159.04C8.24 163.44 10.52 167 13.56 169.72C16.68 172.44 20.8 173.8 25.92 173.8C28.72 173.8 31.24 173.32 33.48 172.36C35.8 171.32 37.64 169.76 39 167.68C40.36 165.52 41.04 162.8 41.04 159.52C41.04 156.24 40.28 153.36 38.76 150.88C37.24 148.4 35.12 146.08 32.4 143.92C29.68 141.76 26.48 139.56 22.8 137.32C19.04 134.92 15.52 132.48 12.24 130C8.96 127.52 6.32 124.72 4.32 121.6C2.4 118.4 1.44 114.56 1.44 110.08C1.44 105.12 2.64 101.08 5.04 97.96C7.44 94.76 10.56 92.4 14.4 90.88C18.32 89.36 22.48 88.6 26.88 88.6ZM87.4116 81.04V123.52C89.4116 119.04 92.1716 115.88 95.6916 114.04C99.2916 112.2 103.172 111.28 107.332 111.28C110.612 111.28 113.292 111.72 115.372 112.6C117.452 113.48 119.132 114.6 120.412 115.96C121.772 117.48 122.732 119.44 123.292 121.84C123.932 124.24 124.252 127.48 124.252 131.56V163.84C124.252 167.2 124.852 169.48 126.052 170.68C127.332 171.88 129.452 172.48 132.412 172.48V175C130.972 174.92 128.772 174.84 125.812 174.76C122.852 174.6 119.932 174.52 117.052 174.52C114.172 174.52 111.332 174.6 108.532 174.76C105.732 174.84 103.612 174.92 102.172 175V172.48C104.732 172.48 106.532 171.88 107.572 170.68C108.612 169.48 109.132 167.2 109.132 163.84V127.48C109.132 125.32 108.932 123.4 108.532 121.72C108.132 119.96 107.332 118.6 106.132 117.64C105.012 116.6 103.292 116.08 100.972 116.08C98.4116 116.08 96.0916 116.8 94.0116 118.24C92.0116 119.6 90.4116 121.56 89.2116 124.12C88.0116 126.6 87.4116 129.44 87.4116 132.64V163.84C87.4116 167.2 87.9316 169.48 88.9716 170.68C90.0916 171.88 91.8916 172.48 94.3716 172.48V175C93.0116 174.92 90.9716 174.84 88.2516 174.76C85.6116 174.6 82.8516 174.52 79.9716 174.52C77.0916 174.52 74.0916 174.6 70.9716 174.76C67.9316 174.84 65.6516 174.92 64.1316 175V172.48C67.0916 172.48 69.1716 171.88 70.3716 170.68C71.6516 169.48 72.2916 167.2 72.2916 163.84V95.44C72.2916 91.84 71.6916 89.2 70.4916 87.52C69.3716 85.76 67.2516 84.88 64.1316 84.88V82.36C66.6916 82.6 69.1716 82.72 71.5716 82.72C74.6116 82.72 77.4516 82.6 80.0916 82.36C82.7316 82.04 85.1716 81.6 87.4116 81.04ZM167.639 111.28C173.159 111.28 178.039 112.4 182.279 114.64C186.599 116.8 189.999 120.28 192.479 125.08C195.039 129.88 196.319 136.2 196.319 144.04C196.319 151.88 195.039 158.2 192.479 163C189.999 167.8 186.599 171.28 182.279 173.44C178.039 175.6 173.159 176.68 167.639 176.68C162.119 176.68 157.199 175.6 152.879 173.44C148.559 171.28 145.159 167.8 142.679 163C140.199 158.2 138.959 151.88 138.959 144.04C138.959 136.2 140.199 129.88 142.679 125.08C145.159 120.28 148.559 116.8 152.879 114.64C157.199 112.4 162.119 111.28 167.639 111.28ZM167.639 113.68C163.879 113.68 160.799 116.08 158.399 120.88C156.079 125.6 154.919 133.32 154.919 144.04C154.919 154.76 156.079 162.48 158.399 167.2C160.799 171.92 163.879 174.28 167.639 174.28C171.319 174.28 174.359 171.92 176.759 167.2C179.159 162.48 180.359 154.76 180.359 144.04C180.359 133.32 179.159 125.6 176.759 120.88C174.359 116.08 171.319 113.68 167.639 113.68ZM226.75 111.76V185.08C226.75 188.68 227.71 191.08 229.63 192.28C231.63 193.56 234.35 194.2 237.79 194.2V196.72C235.87 196.64 233.15 196.52 229.63 196.36C226.19 196.28 222.51 196.24 218.59 196.24C215.87 196.24 213.15 196.28 210.43 196.36C207.71 196.52 205.63 196.64 204.19 196.72V194.2C206.91 194.2 208.83 193.64 209.95 192.52C211.07 191.4 211.63 189.32 211.63 186.28V126.16C211.63 122.56 211.07 119.92 209.95 118.24C208.83 116.48 206.67 115.6 203.47 115.6V113.08C206.03 113.32 208.51 113.44 210.91 113.44C213.95 113.44 216.79 113.32 219.43 113.08C222.07 112.76 224.51 112.32 226.75 111.76ZM245.59 111.28C249.75 111.28 253.47 112.44 256.75 114.76C260.03 117 262.59 120.32 264.43 124.72C266.35 129.12 267.31 134.64 267.31 141.28C267.31 146.56 266.71 151.4 265.51 155.8C264.31 160.12 262.51 163.84 260.11 166.96C257.79 170.08 254.91 172.48 251.47 174.16C248.03 175.84 244.11 176.68 239.71 176.68C236.35 176.68 233.35 176.04 230.71 174.76C228.07 173.48 226.15 171.76 224.95 169.6L226.15 167.92C227.11 169.6 228.43 170.96 230.11 172C231.79 173.04 233.79 173.56 236.11 173.56C239.95 173.56 242.99 172.32 245.23 169.84C247.47 167.28 249.03 163.72 249.91 159.16C250.87 154.6 251.35 149.32 251.35 143.32C251.35 136.68 250.91 131.36 250.03 127.36C249.15 123.36 247.83 120.48 246.07 118.72C244.31 116.88 242.23 115.96 239.83 115.96C236.55 115.96 233.59 117.28 230.95 119.92C228.39 122.48 226.83 126.24 226.27 131.2L225.43 127.84C226.71 122.56 229.15 118.48 232.75 115.6C236.35 112.72 240.63 111.28 245.59 111.28ZM318.763 88.36C324.043 88.36 328.363 89.16 331.723 90.76C335.163 92.28 338.203 94.08 340.843 96.16C342.443 97.36 343.643 97.52 344.443 96.64C345.323 95.68 345.923 93.48 346.243 90.04H349.003C348.843 93.08 348.723 96.8 348.643 101.2C348.563 105.6 348.523 111.4 348.523 118.6H345.763C345.283 115 344.763 112 344.203 109.6C343.643 107.12 342.843 105 341.803 103.24C340.843 101.48 339.483 99.8 337.723 98.2C335.563 95.8 332.963 94.04 329.923 92.92C326.963 91.72 323.843 91.12 320.563 91.12C316.403 91.12 312.763 92.24 309.643 94.48C306.603 96.64 304.043 99.64 301.963 103.48C299.963 107.24 298.443 111.64 297.403 116.68C296.443 121.72 295.963 127.08 295.963 132.76C295.963 138.6 296.483 144.04 297.523 149.08C298.643 154.04 300.243 158.4 302.323 162.16C304.483 165.84 307.123 168.72 310.243 170.8C313.443 172.88 317.123 173.92 321.283 173.92C324.243 173.92 327.283 173.36 330.403 172.24C333.523 171.12 336.083 169.4 338.083 167.08C340.723 164.68 342.523 161.84 343.483 158.56C344.443 155.2 345.203 150.76 345.763 145.24H348.523C348.523 152.76 348.563 158.84 348.643 163.48C348.723 168.04 348.843 171.88 349.003 175H346.243C345.923 171.56 345.363 169.4 344.563 168.52C343.843 167.64 342.603 167.76 340.843 168.88C337.883 170.96 334.723 172.8 331.363 174.4C328.083 175.92 323.843 176.68 318.643 176.68C310.483 176.68 303.323 174.96 297.163 171.52C291.003 168.08 286.203 163.12 282.763 156.64C279.403 150.16 277.723 142.36 277.723 133.24C277.723 124.28 279.483 116.44 283.003 109.72C286.523 103 291.363 97.76 297.523 94C303.683 90.24 310.763 88.36 318.763 88.36ZM389.827 111.28C395.347 111.28 400.227 112.4 404.467 114.64C408.787 116.8 412.187 120.28 414.667 125.08C417.227 129.88 418.507 136.2 418.507 144.04C418.507 151.88 417.227 158.2 414.667 163C412.187 167.8 408.787 171.28 404.467 173.44C400.227 175.6 395.347 176.68 389.827 176.68C384.307 176.68 379.387 175.6 375.067 173.44C370.747 171.28 367.347 167.8 364.867 163C362.387 158.2 361.147 151.88 361.147 144.04C361.147 136.2 362.387 129.88 364.867 125.08C367.347 120.28 370.747 116.8 375.067 114.64C379.387 112.4 384.307 111.28 389.827 111.28ZM389.827 113.68C386.067 113.68 382.987 116.08 380.587 120.88C378.267 125.6 377.107 133.32 377.107 144.04C377.107 154.76 378.267 162.48 380.587 167.2C382.987 171.92 386.067 174.28 389.827 174.28C393.507 174.28 396.547 171.92 398.947 167.2C401.347 162.48 402.547 154.76 402.547 144.04C402.547 133.32 401.347 125.6 398.947 120.88C396.547 116.08 393.507 113.68 389.827 113.68ZM466.218 111.28C468.698 111.28 470.738 111.8 472.338 112.84C474.018 113.88 475.258 115.2 476.058 116.8C476.858 118.4 477.258 120.08 477.258 121.84C477.258 124.48 476.458 126.68 474.858 128.44C473.338 130.2 471.298 131.08 468.738 131.08C466.338 131.08 464.378 130.44 462.858 129.16C461.338 127.88 460.578 126.12 460.578 123.88C460.578 121.88 461.058 120.2 462.018 118.84C463.058 117.48 464.218 116.4 465.498 115.6C464.618 115.12 463.618 114.96 462.498 115.12C460.578 115.28 458.818 115.96 457.218 117.16C455.618 118.36 454.258 119.84 453.138 121.6C452.018 123.36 451.138 125.24 450.498 127.24C449.938 129.24 449.658 131.16 449.658 133V162.64C449.658 166.56 450.658 169.2 452.658 170.56C454.658 171.84 457.578 172.48 461.418 172.48V175C459.578 174.92 456.898 174.84 453.378 174.76C449.938 174.6 446.338 174.52 442.578 174.52C439.458 174.52 436.338 174.6 433.218 174.76C430.178 174.84 427.898 174.92 426.378 175V172.48C429.338 172.48 431.418 171.88 432.618 170.68C433.898 169.48 434.538 167.2 434.538 163.84V126.04C434.538 122.44 433.938 119.8 432.738 118.12C431.618 116.36 429.498 115.48 426.378 115.48V112.96C428.938 113.2 431.418 113.32 433.818 113.32C436.778 113.32 439.578 113.2 442.218 112.96C444.938 112.64 447.418 112.2 449.658 111.64V124.12C450.618 121.88 451.858 119.8 453.378 117.88C454.978 115.96 456.858 114.4 459.018 113.2C461.258 111.92 463.658 111.28 466.218 111.28ZM524.536 111.28C527.896 111.28 530.576 111.72 532.576 112.6C534.656 113.48 536.336 114.6 537.616 115.96C539.056 117.48 540.056 119.44 540.616 121.84C541.256 124.24 541.576 127.48 541.576 131.56V163.84C541.576 167.2 542.176 169.48 543.376 170.68C544.656 171.88 546.776 172.48 549.736 172.48V175C548.296 174.92 546.056 174.84 543.016 174.76C540.056 174.6 537.176 174.52 534.376 174.52C531.416 174.52 528.536 174.6 525.736 174.76C522.936 174.84 520.856 174.92 519.496 175V172.48C522.056 172.48 523.856 171.88 524.896 170.68C525.936 169.48 526.456 167.2 526.456 163.84V127.48C526.456 125.32 526.256 123.4 525.856 121.72C525.456 119.96 524.656 118.6 523.456 117.64C522.256 116.6 520.536 116.08 518.296 116.08C515.656 116.08 513.296 116.8 511.216 118.24C509.216 119.68 507.616 121.68 506.416 124.24C505.296 126.72 504.736 129.52 504.736 132.64V163.84C504.736 167.2 505.256 169.48 506.296 170.68C507.336 171.88 509.136 172.48 511.696 172.48V175C510.336 174.92 508.296 174.84 505.576 174.76C502.856 174.6 500.096 174.52 497.296 174.52C494.336 174.52 491.336 174.6 488.296 174.76C485.256 174.84 482.976 174.92 481.456 175V172.48C484.416 172.48 486.496 171.88 487.696 170.68C488.976 169.48 489.616 167.2 489.616 163.84V126.04C489.616 122.44 489.016 119.8 487.816 118.12C486.696 116.36 484.576 115.48 481.456 115.48V112.96C484.016 113.2 486.496 113.32 488.896 113.32C491.856 113.32 494.656 113.2 497.296 112.96C500.016 112.64 502.496 112.2 504.736 111.64V123.64C506.736 119.08 509.496 115.88 513.016 114.04C516.536 112.2 520.376 111.28 524.536 111.28ZM584.704 111.28C591.744 111.28 597.264 113.4 601.264 117.64C605.264 121.88 607.264 128.64 607.264 137.92H566.824L566.704 135.64H593.344C593.504 131.72 593.264 128.12 592.624 124.84C591.984 121.48 590.944 118.8 589.504 116.8C588.144 114.8 586.344 113.8 584.104 113.8C581.064 113.8 578.424 115.6 576.184 119.2C573.944 122.72 572.544 128.52 571.984 136.6L572.464 137.32C572.304 138.36 572.184 139.48 572.104 140.68C572.104 141.88 572.104 143.08 572.104 144.28C572.104 149.8 572.904 154.36 574.504 157.96C576.104 161.56 578.184 164.2 580.744 165.88C583.304 167.56 585.944 168.4 588.664 168.4C590.504 168.4 592.384 168.12 594.304 167.56C596.224 167 598.104 165.96 599.944 164.44C601.784 162.92 603.464 160.76 604.984 157.96L607.264 158.92C606.384 161.72 604.904 164.52 602.824 167.32C600.824 170.04 598.224 172.28 595.024 174.04C591.824 175.8 588.064 176.68 583.744 176.68C578.304 176.68 573.504 175.48 569.344 173.08C565.184 170.68 561.944 167.12 559.624 162.4C557.304 157.6 556.144 151.76 556.144 144.88C556.144 137.6 557.344 131.48 559.744 126.52C562.224 121.56 565.624 117.8 569.944 115.24C574.264 112.6 579.184 111.28 584.704 111.28ZM654.421 111.28C656.901 111.28 658.941 111.8 660.541 112.84C662.221 113.88 663.461 115.2 664.261 116.8C665.061 118.4 665.461 120.08 665.461 121.84C665.461 124.48 664.661 126.68 663.061 128.44C661.541 130.2 659.501 131.08 656.941 131.08C654.541 131.08 652.581 130.44 651.061 129.16C649.541 127.88 648.781 126.12 648.781 123.88C648.781 121.88 649.261 120.2 650.221 118.84C651.261 117.48 652.421 116.4 653.701 115.6C652.821 115.12 651.821 114.96 650.701 115.12C648.781 115.28 647.021 115.96 645.421 117.16C643.821 118.36 642.461 119.84 641.341 121.6C640.221 123.36 639.341 125.24 638.701 127.24C638.141 129.24 637.861 131.16 637.861 133V162.64C637.861 166.56 638.861 169.2 640.861 170.56C642.861 171.84 645.781 172.48 649.621 172.48V175C647.781 174.92 645.101 174.84 641.581 174.76C638.141 174.6 634.541 174.52 630.781 174.52C627.661 174.52 624.541 174.6 621.421 174.76C618.381 174.84 616.101 174.92 614.581 175V172.48C617.541 172.48 619.621 171.88 620.821 170.68C622.101 169.48 622.741 167.2 622.741 163.84V126.04C622.741 122.44 622.141 119.8 620.941 118.12C619.821 116.36 617.701 115.48 614.581 115.48V112.96C617.141 113.2 619.621 113.32 622.021 113.32C624.981 113.32 627.781 113.2 630.421 112.96C633.141 112.64 635.621 112.2 637.861 111.64V124.12C638.821 121.88 640.061 119.8 641.581 117.88C643.181 115.96 645.061 114.4 647.221 113.2C649.461 111.92 651.861 111.28 654.421 111.28Z" fill="black"/>
</svg>
