<svg width="600" height="600" viewBox="0 0 600 600" fill="none" xmlns="http://www.w3.org/2000/svg">
<rect width="600" height="600" fill="#F6F6F6"/>
<path d="M390.271 159.743C381.479 166.46 376.523 173.09 373.308 183.677V211.294C373.394 242.593 373.394 242.593 373.394 242.593C369.814 247.707 373.905 251.287 376.974 251.287C380.042 251.287 384.134 246.685 380.042 242.593C380.042 231.342 380.042 242.593 380.042 211.908C379.959 184.291 380.042 183.677 380.042 183.677C382.943 176.096 386.575 170.545 392.828 165.369C401.057 158.556 406.125 157.186 417.888 156.163C429.548 156.163 437.494 159 446.016 166.903C451.659 172.136 456.363 183.677 456.363 183.677V210.169C456.363 241.263 456.363 242.593 456.363 242.593C452.153 247.196 456.362 251.287 459.313 251.287C462.381 251.287 466.473 247.707 462.704 242.593C462.704 242.593 462.704 241.263 462.704 210.169V183.677C460.173 173.604 456.363 166.903 448.573 159.743C444.678 156.163 431.021 149.535 417.888 150.026C406.527 150.451 399.606 152.61 390.271 159.743Z" fill="black"/>
<path d="M492.712 206.665C479.517 207.893 467.856 209.018 466.936 209.018C465.504 209.12 465.095 210.041 465.095 213.723V218.326H482.994H500.894L506.52 229.782C531.17 280.31 531.989 343.931 508.872 414.712C505.088 426.168 502.735 432.509 497.314 445.909L495.678 450L497.723 447.443C501.406 442.84 512.248 423.099 517.464 411.336C531.886 379.219 539.353 346.693 540.478 310.791C541.399 279.492 537.921 252.489 529.943 229.475C526.363 219.144 518.896 203.904 517.464 204.108C517.021 204.172 505.906 205.336 492.712 206.665Z" fill="black"/>
<path d="M418.539 212.905C381.688 216.36 382.228 216.28 382.228 217.508C382.228 218.735 394.723 218.326 417.532 218.326H452.821V214.235C452.821 209.325 453.138 210.04 451.082 210.245C450.059 210.348 434.905 211.371 418.539 212.905Z" fill="black"/>
<path d="M91.88 193.6C96.36 193.6 99.8 194.08 102.2 195.04C104.6 196 106.68 197.04 108.44 198.16C109.4 198.72 110.16 199.16 110.72 199.48C111.36 199.72 111.96 199.84 112.52 199.84C113.32 199.84 113.88 199.4 114.2 198.52C114.6 197.64 114.92 196.32 115.16 194.56H117.92C117.84 196.08 117.72 197.84 117.56 199.84C117.48 201.84 117.4 204.52 117.32 207.88C117.32 211.16 117.32 215.52 117.32 220.96H114.56C114.32 216.88 113.4 212.96 111.8 209.2C110.28 205.44 108.08 202.36 105.2 199.96C102.4 197.48 98.8 196.24 94.4 196.24C90.48 196.24 87.2 197.4 84.56 199.72C82 202.04 80.72 205.16 80.72 209.08C80.72 212.44 81.56 215.28 83.24 217.6C84.92 219.84 87.28 222.04 90.32 224.2C93.44 226.28 97.12 228.68 101.36 231.4C105.28 233.96 108.8 236.52 111.92 239.08C115.04 241.56 117.48 244.32 119.24 247.36C121.08 250.4 122 254.12 122 258.52C122 263.72 120.72 268.04 118.16 271.48C115.6 274.92 112.16 277.48 107.84 279.16C103.52 280.84 98.8 281.68 93.68 281.68C88.96 281.68 85.2 281.2 82.4 280.24C79.68 279.28 77.32 278.28 75.32 277.24C73.56 276.12 72.2 275.56 71.24 275.56C70.44 275.56 69.84 276 69.44 276.88C69.12 277.76 68.84 279.08 68.6 280.84H65.84C66 279 66.08 276.84 66.08 274.36C66.16 271.88 66.2 268.68 66.2 264.76C66.28 260.76 66.32 255.72 66.32 249.64H69.08C69.4 254.76 70.28 259.56 71.72 264.04C73.24 268.44 75.52 272 78.56 274.72C81.68 277.44 85.8 278.8 90.92 278.8C93.72 278.8 96.24 278.32 98.48 277.36C100.8 276.32 102.64 274.76 104 272.68C105.36 270.52 106.04 267.8 106.04 264.52C106.04 261.24 105.28 258.36 103.76 255.88C102.24 253.4 100.12 251.08 97.4 248.92C94.68 246.76 91.48 244.56 87.8 242.32C84.04 239.92 80.52 237.48 77.24 235C73.96 232.52 71.32 229.72 69.32 226.6C67.4 223.4 66.44 219.56 66.44 215.08C66.44 210.12 67.64 206.08 70.04 202.96C72.44 199.76 75.56 197.4 79.4 195.88C83.32 194.36 87.48 193.6 91.88 193.6ZM152.412 186.04V228.52C154.412 224.04 157.172 220.88 160.692 219.04C164.292 217.2 168.172 216.28 172.332 216.28C175.612 216.28 178.292 216.72 180.372 217.6C182.452 218.48 184.132 219.6 185.412 220.96C186.772 222.48 187.732 224.44 188.292 226.84C188.932 229.24 189.252 232.48 189.252 236.56V268.84C189.252 272.2 189.852 274.48 191.052 275.68C192.332 276.88 194.452 277.48 197.412 277.48V280C195.972 279.92 193.772 279.84 190.812 279.76C187.852 279.6 184.932 279.52 182.052 279.52C179.172 279.52 176.332 279.6 173.532 279.76C170.732 279.84 168.612 279.92 167.172 280V277.48C169.732 277.48 171.532 276.88 172.572 275.68C173.612 274.48 174.132 272.2 174.132 268.84V232.48C174.132 230.32 173.932 228.4 173.532 226.72C173.132 224.96 172.332 223.6 171.132 222.64C170.012 221.6 168.292 221.08 165.972 221.08C163.412 221.08 161.092 221.8 159.012 223.24C157.012 224.6 155.412 226.56 154.212 229.12C153.012 231.6 152.412 234.44 152.412 237.64V268.84C152.412 272.2 152.932 274.48 153.972 275.68C155.092 276.88 156.892 277.48 159.372 277.48V280C158.012 279.92 155.972 279.84 153.252 279.76C150.612 279.6 147.852 279.52 144.972 279.52C142.092 279.52 139.092 279.6 135.972 279.76C132.932 279.84 130.652 279.92 129.132 280V277.48C132.092 277.48 134.172 276.88 135.372 275.68C136.652 274.48 137.292 272.2 137.292 268.84V200.44C137.292 196.84 136.692 194.2 135.492 192.52C134.372 190.76 132.252 189.88 129.132 189.88V187.36C131.692 187.6 134.172 187.72 136.572 187.72C139.612 187.72 142.452 187.6 145.092 187.36C147.732 187.04 150.172 186.6 152.412 186.04ZM232.639 216.28C238.159 216.28 243.039 217.4 247.279 219.64C251.599 221.8 254.999 225.28 257.479 230.08C260.039 234.88 261.319 241.2 261.319 249.04C261.319 256.88 260.039 263.2 257.479 268C254.999 272.8 251.599 276.28 247.279 278.44C243.039 280.6 238.159 281.68 232.639 281.68C227.119 281.68 222.199 280.6 217.879 278.44C213.559 276.28 210.159 272.8 207.679 268C205.199 263.2 203.959 256.88 203.959 249.04C203.959 241.2 205.199 234.88 207.679 230.08C210.159 225.28 213.559 221.8 217.879 219.64C222.199 217.4 227.119 216.28 232.639 216.28ZM232.639 218.68C228.879 218.68 225.799 221.08 223.399 225.88C221.079 230.6 219.919 238.32 219.919 249.04C219.919 259.76 221.079 267.48 223.399 272.2C225.799 276.92 228.879 279.28 232.639 279.28C236.319 279.28 239.359 276.92 241.759 272.2C244.159 267.48 245.359 259.76 245.359 249.04C245.359 238.32 244.159 230.6 241.759 225.88C239.359 221.08 236.319 218.68 232.639 218.68ZM291.75 216.76V290.08C291.75 293.68 292.71 296.08 294.63 297.28C296.63 298.56 299.35 299.2 302.79 299.2V301.72C300.87 301.64 298.15 301.52 294.63 301.36C291.19 301.28 287.51 301.24 283.59 301.24C280.87 301.24 278.15 301.28 275.43 301.36C272.71 301.52 270.63 301.64 269.19 301.72V299.2C271.91 299.2 273.83 298.64 274.95 297.52C276.07 296.4 276.63 294.32 276.63 291.28V231.16C276.63 227.56 276.07 224.92 274.95 223.24C273.83 221.48 271.67 220.6 268.47 220.6V218.08C271.03 218.32 273.51 218.44 275.91 218.44C278.95 218.44 281.79 218.32 284.43 218.08C287.07 217.76 289.51 217.32 291.75 216.76ZM310.59 216.28C314.75 216.28 318.47 217.44 321.75 219.76C325.03 222 327.59 225.32 329.43 229.72C331.35 234.12 332.31 239.64 332.31 246.28C332.31 251.56 331.71 256.4 330.51 260.8C329.31 265.12 327.51 268.84 325.11 271.96C322.79 275.08 319.91 277.48 316.47 279.16C313.03 280.84 309.11 281.68 304.71 281.68C301.35 281.68 298.35 281.04 295.71 279.76C293.07 278.48 291.15 276.76 289.95 274.6L291.15 272.92C292.11 274.6 293.43 275.96 295.11 277C296.79 278.04 298.79 278.56 301.11 278.56C304.95 278.56 307.99 277.32 310.23 274.84C312.47 272.28 314.03 268.72 314.91 264.16C315.87 259.6 316.35 254.32 316.35 248.32C316.35 241.68 315.91 236.36 315.03 232.36C314.15 228.36 312.83 225.48 311.07 223.72C309.31 221.88 307.23 220.96 304.83 220.96C301.55 220.96 298.59 222.28 295.95 224.92C293.39 227.48 291.83 231.24 291.27 236.2L290.43 232.84C291.71 227.56 294.15 223.48 297.75 220.6C301.35 217.72 305.63 216.28 310.59 216.28ZM105.56 293.36C110.84 293.36 115.16 294.16 118.52 295.76C121.96 297.28 125 299.08 127.64 301.16C129.24 302.36 130.44 302.52 131.24 301.64C132.12 300.68 132.72 298.48 133.04 295.04H135.8C135.64 298.08 135.52 301.8 135.44 306.2C135.36 310.6 135.32 316.4 135.32 323.6H132.56C132.08 320 131.56 317 131 314.6C130.44 312.12 129.64 310 128.6 308.24C127.64 306.48 126.28 304.8 124.52 303.2C122.36 300.8 119.76 299.04 116.72 297.92C113.76 296.72 110.64 296.12 107.36 296.12C103.2 296.12 99.56 297.24 96.44 299.48C93.4 301.64 90.84 304.64 88.76 308.48C86.76 312.24 85.24 316.64 84.2 321.68C83.24 326.72 82.76 332.08 82.76 337.76C82.76 343.6 83.28 349.04 84.32 354.08C85.44 359.04 87.04 363.4 89.12 367.16C91.28 370.84 93.92 373.72 97.04 375.8C100.24 377.88 103.92 378.92 108.08 378.92C111.04 378.92 114.08 378.36 117.2 377.24C120.32 376.12 122.88 374.4 124.88 372.08C127.52 369.68 129.32 366.84 130.28 363.56C131.24 360.2 132 355.76 132.56 350.24H135.32C135.32 357.76 135.36 363.84 135.44 368.48C135.52 373.04 135.64 376.88 135.8 380H133.04C132.72 376.56 132.16 374.4 131.36 373.52C130.64 372.64 129.4 372.76 127.64 373.88C124.68 375.96 121.52 377.8 118.16 379.4C114.88 380.92 110.64 381.68 105.44 381.68C97.28 381.68 90.12 379.96 83.96 376.52C77.8 373.08 73 368.12 69.56 361.64C66.2 355.16 64.52 347.36 64.52 338.24C64.52 329.28 66.28 321.44 69.8 314.72C73.32 308 78.16 302.76 84.32 299C90.48 295.24 97.56 293.36 105.56 293.36ZM176.623 316.28C182.143 316.28 187.023 317.4 191.263 319.64C195.583 321.8 198.983 325.28 201.463 330.08C204.023 334.88 205.303 341.2 205.303 349.04C205.303 356.88 204.023 363.2 201.463 368C198.983 372.8 195.583 376.28 191.263 378.44C187.023 380.6 182.143 381.68 176.623 381.68C171.103 381.68 166.183 380.6 161.863 378.44C157.543 376.28 154.143 372.8 151.663 368C149.183 363.2 147.943 356.88 147.943 349.04C147.943 341.2 149.183 334.88 151.663 330.08C154.143 325.28 157.543 321.8 161.863 319.64C166.183 317.4 171.103 316.28 176.623 316.28ZM176.623 318.68C172.863 318.68 169.783 321.08 167.383 325.88C165.063 330.6 163.903 338.32 163.903 349.04C163.903 359.76 165.063 367.48 167.383 372.2C169.783 376.92 172.863 379.28 176.623 379.28C180.303 379.28 183.343 376.92 185.743 372.2C188.143 367.48 189.343 359.76 189.343 349.04C189.343 338.32 188.143 330.6 185.743 325.88C183.343 321.08 180.303 318.68 176.623 318.68ZM253.015 316.28C255.495 316.28 257.535 316.8 259.135 317.84C260.815 318.88 262.055 320.2 262.855 321.8C263.655 323.4 264.055 325.08 264.055 326.84C264.055 329.48 263.255 331.68 261.655 333.44C260.135 335.2 258.095 336.08 255.535 336.08C253.135 336.08 251.175 335.44 249.655 334.16C248.135 332.88 247.375 331.12 247.375 328.88C247.375 326.88 247.855 325.2 248.815 323.84C249.855 322.48 251.015 321.4 252.295 320.6C251.415 320.12 250.415 319.96 249.295 320.12C247.375 320.28 245.615 320.96 244.015 322.16C242.415 323.36 241.055 324.84 239.935 326.6C238.815 328.36 237.935 330.24 237.295 332.24C236.735 334.24 236.455 336.16 236.455 338V367.64C236.455 371.56 237.455 374.2 239.455 375.56C241.455 376.84 244.375 377.48 248.215 377.48V380C246.375 379.92 243.695 379.84 240.175 379.76C236.735 379.6 233.135 379.52 229.375 379.52C226.255 379.52 223.135 379.6 220.015 379.76C216.975 379.84 214.695 379.92 213.175 380V377.48C216.135 377.48 218.215 376.88 219.415 375.68C220.695 374.48 221.335 372.2 221.335 368.84V331.04C221.335 327.44 220.735 324.8 219.535 323.12C218.415 321.36 216.295 320.48 213.175 320.48V317.96C215.735 318.2 218.215 318.32 220.615 318.32C223.575 318.32 226.375 318.2 229.015 317.96C231.735 317.64 234.215 317.2 236.455 316.64V329.12C237.415 326.88 238.655 324.8 240.175 322.88C241.775 320.96 243.655 319.4 245.815 318.2C248.055 316.92 250.455 316.28 253.015 316.28ZM311.333 316.28C314.693 316.28 317.373 316.72 319.373 317.6C321.453 318.48 323.133 319.6 324.413 320.96C325.853 322.48 326.853 324.44 327.413 326.84C328.053 329.24 328.373 332.48 328.373 336.56V368.84C328.373 372.2 328.973 374.48 330.173 375.68C331.453 376.88 333.573 377.48 336.533 377.48V380C335.093 379.92 332.853 379.84 329.813 379.76C326.853 379.6 323.973 379.52 321.173 379.52C318.213 379.52 315.333 379.6 312.533 379.76C309.733 379.84 307.653 379.92 306.293 380V377.48C308.853 377.48 310.653 376.88 311.693 375.68C312.733 374.48 313.253 372.2 313.253 368.84V332.48C313.253 330.32 313.053 328.4 312.653 326.72C312.253 324.96 311.453 323.6 310.253 322.64C309.053 321.6 307.333 321.08 305.093 321.08C302.453 321.08 300.093 321.8 298.013 323.24C296.013 324.68 294.413 326.68 293.213 329.24C292.093 331.72 291.533 334.52 291.533 337.64V368.84C291.533 372.2 292.053 374.48 293.093 375.68C294.133 376.88 295.933 377.48 298.493 377.48V380C297.133 379.92 295.093 379.84 292.373 379.76C289.653 379.6 286.893 379.52 284.093 379.52C281.133 379.52 278.133 379.6 275.093 379.76C272.053 379.84 269.773 379.92 268.253 380V377.48C271.213 377.48 273.293 376.88 274.493 375.68C275.773 374.48 276.413 372.2 276.413 368.84V331.04C276.413 327.44 275.813 324.8 274.613 323.12C273.493 321.36 271.373 320.48 268.253 320.48V317.96C270.813 318.2 273.293 318.32 275.693 318.32C278.653 318.32 281.453 318.2 284.093 317.96C286.813 317.64 289.293 317.2 291.533 316.64V328.64C293.533 324.08 296.293 320.88 299.813 319.04C303.333 317.2 307.173 316.28 311.333 316.28ZM371.501 316.28C378.541 316.28 384.061 318.4 388.061 322.64C392.061 326.88 394.061 333.64 394.061 342.92H353.621L353.501 340.64H380.141C380.301 336.72 380.061 333.12 379.421 329.84C378.781 326.48 377.741 323.8 376.301 321.8C374.941 319.8 373.141 318.8 370.901 318.8C367.861 318.8 365.221 320.6 362.981 324.2C360.741 327.72 359.341 333.52 358.781 341.6L359.261 342.32C359.101 343.36 358.981 344.48 358.901 345.68C358.901 346.88 358.901 348.08 358.901 349.28C358.901 354.8 359.701 359.36 361.301 362.96C362.901 366.56 364.981 369.2 367.541 370.88C370.101 372.56 372.741 373.4 375.461 373.4C377.301 373.4 379.181 373.12 381.101 372.56C383.021 372 384.901 370.96 386.741 369.44C388.581 367.92 390.261 365.76 391.781 362.96L394.061 363.92C393.181 366.72 391.701 369.52 389.621 372.32C387.621 375.04 385.021 377.28 381.821 379.04C378.621 380.8 374.861 381.68 370.541 381.68C365.101 381.68 360.301 380.48 356.141 378.08C351.981 375.68 348.741 372.12 346.421 367.4C344.101 362.6 342.941 356.76 342.941 349.88C342.941 342.6 344.141 336.48 346.541 331.52C349.021 326.56 352.421 322.8 356.741 320.24C361.061 317.6 365.981 316.28 371.501 316.28ZM441.218 316.28C443.698 316.28 445.738 316.8 447.338 317.84C449.018 318.88 450.258 320.2 451.058 321.8C451.858 323.4 452.258 325.08 452.258 326.84C452.258 329.48 451.458 331.68 449.858 333.44C448.338 335.2 446.298 336.08 443.738 336.08C441.338 336.08 439.378 335.44 437.858 334.16C436.338 332.88 435.578 331.12 435.578 328.88C435.578 326.88 436.058 325.2 437.018 323.84C438.058 322.48 439.218 321.4 440.498 320.6C439.618 320.12 438.618 319.96 437.498 320.12C435.578 320.28 433.818 320.96 432.218 322.16C430.618 323.36 429.258 324.84 428.138 326.6C427.018 328.36 426.138 330.24 425.498 332.24C424.938 334.24 424.658 336.16 424.658 338V367.64C424.658 371.56 425.658 374.2 427.658 375.56C429.658 376.84 432.578 377.48 436.418 377.48V380C434.578 379.92 431.898 379.84 428.378 379.76C424.938 379.6 421.338 379.52 417.578 379.52C414.458 379.52 411.338 379.6 408.218 379.76C405.178 379.84 402.898 379.92 401.378 380V377.48C404.338 377.48 406.418 376.88 407.618 375.68C408.898 374.48 409.538 372.2 409.538 368.84V331.04C409.538 327.44 408.938 324.8 407.738 323.12C406.618 321.36 404.498 320.48 401.378 320.48V317.96C403.938 318.2 406.418 318.32 408.818 318.32C411.778 318.32 414.578 318.2 417.218 317.96C419.938 317.64 422.418 317.2 424.658 316.64V329.12C425.618 326.88 426.858 324.8 428.378 322.88C429.978 320.96 431.858 319.4 434.018 318.2C436.258 316.92 438.658 316.28 441.218 316.28Z" fill="black"/>
</svg>
