<svg width="165" height="294" viewBox="0 0 165 294" fill="none" xmlns="http://www.w3.org/2000/svg">
<path d="M17.8628 9.52527C9.26704 16.0927 4.42172 22.5746 1.27839 32.9253V59.9253C1.36275 90.5253 1.36275 90.5253 1.36275 90.5253C-2.13724 95.5253 1.86277 99.0253 4.86275 99.0253C7.86274 99.0253 11.8628 94.5253 7.86275 90.5253C7.86275 79.5253 7.86276 90.5253 7.86276 60.5253C7.78167 33.5254 7.86278 32.9253 7.86278 32.9253C10.6988 25.5133 14.2499 20.0862 20.3628 15.0253C28.4077 8.36482 33.3628 7.02527 44.8628 6.02527C56.2628 6.02527 64.0316 8.79922 72.3628 16.5253C77.8803 21.6421 82.4784 32.9253 82.4784 32.9253V58.8253C82.4784 89.2253 82.4784 90.5253 82.4784 90.5253C78.3628 95.0253 82.4784 99.0253 85.3628 99.0253C88.3628 99.0253 92.3628 95.5253 88.6784 90.5253C88.6784 90.5253 88.6784 89.2253 88.6784 58.8253V32.9253C86.2034 23.0772 82.4784 16.5253 74.8628 9.52527C71.0549 6.02527 57.7026 -0.454971 44.8628 0.0252686C33.756 0.440689 26.9894 2.55216 17.8628 9.52527Z" fill="black"/>
<path d="M118.016 55.4C105.116 56.6 93.7156 57.7 92.8156 57.7C91.4156 57.8 91.0156 58.7 91.0156 62.3V66.8H108.516H126.016L131.516 78C155.616 127.4 156.416 189.6 133.816 258.8C130.116 270 127.816 276.2 122.516 289.3L120.916 293.3L122.916 290.8C126.516 286.3 137.116 267 142.216 255.5C156.316 224.1 163.616 192.3 164.716 157.2C165.616 126.6 162.216 100.2 154.416 77.7C150.916 67.6 143.616 52.7 142.216 52.9C141.782 52.9619 130.916 54.1 118.016 55.4Z" fill="black"/>
<path d="M45.5 61.5C9.4715 64.8777 10 64.8 10 66C10 67.2 22.2156 66.8 44.5156 66.8H79.0156V62.8C79.0156 58 79.3258 58.699 77.3156 58.9C76.3156 59 61.5 60 45.5 61.5Z" fill="black"/>
</svg>
